<svg xmlns="http://www.w3.org/2000/svg" viewBox="0 0 55.11 55.11"><defs><style>.cls-1{fill:#fff;}</style></defs><g id="Capa_2" data-name="Capa 2"><g id="Capa_1-2" data-name="Capa 1"><path class="cls-1" d="M10.62,16.22l1.53,1.9s1.72-1.42,6.8-1.46,5.81,0,5.81,0v5.59h2.92V16.66s9.67.18,10.75,0a37.85,37.85,0,0,0,5.08-1.76V12.2s-2.13,1.09-3.24,1.5a7.4,7.4,0,0,1-2.23.61c-.48,0-21.72-.05-22.4,0a9.55,9.55,0,0,0-3.36.85A14.41,14.41,0,0,0,10.62,16.22Z"/><path class="cls-1" d="M30.45,30.14c2.94,0,7.27,0,8,0a5.85,5.85,0,0,0,5.22-4.46H40.77a16.89,16.89,0,0,1-1,1.42,2.94,2.94,0,0,1-1.69.69H30.45Z"/><path class="cls-1" d="M27.68,30.1v9L38,39.1a7.1,7.1,0,0,0,2.23-.61c1.11-.41,1.7-3,1.7-3H44.5s0,6-6.07,5.93c-1.1,0-10.75,0-10.75,0l-2.92,0s-.73-.08-5.81,0-6.8,1.46-6.8,1.46L10.62,41A14.41,14.41,0,0,1,12.28,40a9.77,9.77,0,0,1,3.36-.85c.29,0,4.46,0,9.12,0V25.64h2.92V30.1Z"/><path class="cls-1" d="M27.56,0A27.56,27.56,0,1,0,55.11,27.56,27.56,27.56,0,0,0,27.56,0Zm0,52.87A25.32,25.32,0,1,1,52.87,27.56,25.32,25.32,0,0,1,27.56,52.87Z"/></g></g></svg>