<svg xmlns="http://www.w3.org/2000/svg" viewBox="0 0 6.94 12.04"><defs><style>.cls-1{fill:#fff;}</style></defs><g id="Capa_2" data-name="Capa 2"><g id="Capa_1-2" data-name="Capa 1"><path class="cls-1" d="M5.66,2.28v.81h.79c.31,0,.5.16.49.42s-.19.4-.49.4H5.66v.81h.8c.31,0,.49.17.48.42s-.18.4-.49.4H5.74l-.08,0a1.07,1.07,0,0,0,.19.88,3.16,3.16,0,0,1,.66,3.34A3.15,3.15,0,0,1,3.88,12,3.31,3.31,0,0,1,.36,10.21,3.39,3.39,0,0,1,.91,6.39.7.7,0,0,0,1.06,6c0-1.21,0-2.42,0-3.63A2.33,2.33,0,0,1,2.8.07,2.27,2.27,0,0,1,5.4,1.28a.3.3,0,0,0,.31.19c.26,0,.53,0,.79,0a.41.41,0,0,1,.44.4c0,.24-.16.4-.45.41S6,2.28,5.66,2.28Zm-.77,2h0v-2a1.43,1.43,0,0,0-.33-.93,1.53,1.53,0,0,0-2.73.95q0,2,0,3.9a.87.87,0,0,1-.28.67,2.56,2.56,0,0,0-.51,3A2.62,2.62,0,0,0,3.6,11.28,2.51,2.51,0,0,0,5.82,9.51a2.53,2.53,0,0,0-.7-2.74.75.75,0,0,1-.22-.51C4.87,5.59,4.89,4.92,4.89,4.25Z"/><path class="cls-1" d="M2.74,2.91H4V7.16a.34.34,0,0,0,.18.34,1.42,1.42,0,0,1,.59,1.62,1.45,1.45,0,0,1-1.35,1A1.43,1.43,0,0,1,2,9.14a1.4,1.4,0,0,1,.55-1.61.45.45,0,0,0,.22-.43c0-1.3,0-2.6,0-3.9Z"/></g></g></svg>